<svg xmlns="http://www.w3.org/2000/svg" width="405.31" height="35" viewBox="0 0 405.31 35"><rect class="svg__rect" x="0" y="0" width="260.56" height="35" fill="#F3CA20"/><rect class="svg__rect" x="258.56" y="0" width="146.75" height="35" fill="#000000"/><path class="svg__text" d="M19.57 22L14.22 22L14.22 13.47L15.70 13.47L15.70 20.82L19.57 20.82L19.57 22ZM23.43 18.00L23.43 18.00L23.43 17.52Q23.43 16.28 23.87 15.32Q24.31 14.37 25.12 13.86Q25.92 13.35 26.97 13.35Q28.01 13.35 28.82 13.85Q29.62 14.35 30.06 15.29Q30.50 16.23 30.51 17.48L30.51 17.48L30.51 17.96Q30.51 19.21 30.07 20.16Q29.64 21.10 28.83 21.61Q28.03 22.12 26.98 22.12L26.98 22.12Q25.94 22.12 25.13 21.61Q24.32 21.10 23.88 20.17Q23.43 19.23 23.43 18.00ZM24.91 17.46L24.91 17.96Q24.91 19.36 25.46 20.13Q26.01 20.90 26.98 20.90L26.98 20.90Q27.96 20.90 28.49 20.15Q29.02 19.40 29.02 17.96L29.02 17.96L29.02 17.51Q29.02 16.09 28.49 15.34Q27.95 14.58 26.97 14.58L26.97 14.58Q26.01 14.58 25.46 15.33Q24.92 16.09 24.91 17.46L24.91 17.46ZM36.45 22L34.97 22L34.97 13.47L36.45 13.47L40.27 19.54L40.27 13.47L41.74 13.47L41.74 22L40.26 22L36.45 15.95L36.45 22ZM46.23 18.13L46.23 18.13L46.23 17.46Q46.23 15.53 47.16 14.44Q48.08 13.35 49.74 13.35L49.74 13.35Q51.17 13.35 52.00 14.05Q52.84 14.76 53.01 16.08L53.01 16.08L51.56 16.08Q51.31 14.54 49.77 14.54L49.77 14.54Q48.78 14.54 48.26 15.26Q47.74 15.98 47.72 17.37L47.72 17.37L47.72 18.02Q47.72 19.40 48.30 20.17Q48.89 20.93 49.92 20.93L49.92 20.93Q51.06 20.93 51.54 20.42L51.54 20.42L51.54 18.75L49.78 18.75L49.78 17.62L53.02 17.62L53.02 20.89Q52.56 21.50 51.73 21.81Q50.91 22.12 49.87 22.12L49.87 22.12Q48.80 22.12 47.97 21.63Q47.15 21.14 46.70 20.24Q46.25 19.33 46.23 18.13ZM60.26 18.95L57.18 18.95L57.18 17.80L60.26 17.80L60.26 18.95ZM66.24 14.66L63.61 14.66L63.61 13.47L70.37 13.47L70.37 14.66L67.71 14.66L67.71 22L66.24 22L66.24 14.66ZM75.69 22L74.22 22L74.22 13.47L75.69 13.47L75.69 22ZM81.98 22L80.50 22L80.50 13.47L82.43 13.47L84.89 20.01L87.34 13.47L89.26 13.47L89.26 22L87.78 22L87.78 19.19L87.93 15.43L85.41 22L84.35 22L81.83 15.43L81.98 19.19L81.98 22ZM99.58 22L94.00 22L94.00 13.47L99.54 13.47L99.54 14.66L95.48 14.66L95.48 17.02L98.98 17.02L98.98 18.19L95.48 18.19L95.48 20.82L99.58 20.82L99.58 22ZM106.40 18.95L103.32 18.95L103.32 17.80L106.40 17.80L106.40 18.95ZM110.26 19.42L110.26 19.42L111.75 19.42Q111.75 20.15 112.23 20.55Q112.71 20.95 113.60 20.95L113.60 20.95Q114.38 20.95 114.77 20.63Q115.16 20.32 115.16 19.80L115.16 19.80Q115.16 19.24 114.76 18.94Q114.37 18.63 113.33 18.32Q112.30 18.01 111.69 17.63L111.69 17.63Q110.53 16.90 110.53 15.72L110.53 15.72Q110.53 14.69 111.37 14.02Q112.21 13.35 113.55 13.35L113.55 13.35Q114.44 13.35 115.14 13.68Q115.84 14.01 116.23 14.61Q116.63 15.22 116.63 15.96L116.63 15.96L115.16 15.96Q115.16 15.29 114.74 14.91Q114.32 14.54 113.54 14.54L113.54 14.54Q112.81 14.54 112.41 14.85Q112.01 15.16 112.01 15.71L112.01 15.71Q112.01 16.18 112.44 16.50Q112.88 16.81 113.87 17.10Q114.87 17.40 115.47 17.78Q116.08 18.16 116.36 18.65Q116.64 19.13 116.64 19.79L116.64 19.79Q116.64 20.86 115.82 21.49Q115.00 22.12 113.60 22.12L113.60 22.12Q112.68 22.12 111.90 21.77Q111.13 21.43 110.69 20.83Q110.26 20.22 110.26 19.42ZM122.41 22L120.93 22L120.93 13.47L124.19 13.47Q125.62 13.47 126.46 14.21Q127.30 14.96 127.30 16.18L127.30 16.18Q127.30 17.44 126.48 18.13Q125.66 18.83 124.17 18.83L124.17 18.83L122.41 18.83L122.41 22ZM122.41 14.66L122.41 17.64L124.19 17.64Q124.98 17.64 125.40 17.27Q125.81 16.90 125.81 16.19L125.81 16.19Q125.81 15.50 125.39 15.09Q124.97 14.68 124.23 14.66L124.23 14.66L122.41 14.66ZM137.16 22L131.59 22L131.59 13.47L137.12 13.47L137.12 14.66L133.07 14.66L133.07 17.02L136.57 17.02L136.57 18.19L133.07 18.19L133.07 20.82L137.16 20.82L137.16 22ZM146.94 22L141.36 22L141.36 13.47L146.90 13.47L146.90 14.66L142.84 14.66L142.84 17.02L146.35 17.02L146.35 18.19L142.84 18.19L142.84 20.82L146.94 20.82L146.94 22ZM153.59 22L151.13 22L151.13 13.47L153.65 13.47Q154.78 13.47 155.66 13.97Q156.54 14.48 157.02 15.40Q157.50 16.33 157.50 17.52L157.50 17.52L157.50 17.95Q157.50 19.16 157.01 20.08Q156.53 21.00 155.64 21.50Q154.74 22 153.59 22L153.59 22ZM152.62 14.66L152.62 20.82L153.58 20.82Q154.75 20.82 155.37 20.09Q156.00 19.36 156.01 17.99L156.01 17.99L156.01 17.52Q156.01 16.13 155.40 15.40Q154.80 14.66 153.65 14.66L153.65 14.66L152.62 14.66ZM163.64 14.66L161.01 14.66L161.01 13.47L167.77 13.47L167.77 14.66L165.11 14.66L165.11 22L163.64 22L163.64 14.66ZM177.11 22L171.53 22L171.53 13.47L177.07 13.47L177.07 14.66L173.01 14.66L173.01 17.02L176.52 17.02L176.52 18.19L173.01 18.19L173.01 20.82L177.11 20.82L177.11 22ZM180.87 19.42L180.87 19.42L182.35 19.42Q182.35 20.15 182.83 20.55Q183.31 20.95 184.21 20.95L184.21 20.95Q184.98 20.95 185.37 20.63Q185.76 20.32 185.76 19.80L185.76 19.80Q185.76 19.24 185.37 18.94Q184.97 18.63 183.94 18.32Q182.91 18.01 182.30 17.63L182.30 17.63Q181.13 16.90 181.13 15.72L181.13 15.72Q181.13 14.69 181.97 14.02Q182.81 13.35 184.16 13.35L184.16 13.35Q185.05 13.35 185.74 13.68Q186.44 14.01 186.84 14.61Q187.24 15.22 187.24 15.96L187.24 15.96L185.76 15.96Q185.76 15.29 185.34 14.91Q184.92 14.54 184.14 14.54L184.14 14.54Q183.42 14.54 183.02 14.85Q182.62 15.16 182.62 15.71L182.62 15.71Q182.62 16.18 183.05 16.50Q183.48 16.81 184.48 17.10Q185.47 17.40 186.08 17.78Q186.68 18.16 186.96 18.65Q187.24 19.13 187.24 19.79L187.24 19.79Q187.24 20.86 186.43 21.49Q185.61 22.12 184.21 22.12L184.21 22.12Q183.28 22.12 182.51 21.77Q181.73 21.43 181.30 20.83Q180.87 20.22 180.87 19.42ZM193.22 14.66L190.58 14.66L190.58 13.47L197.35 13.47L197.35 14.66L194.69 14.66L194.69 22L193.22 22L193.22 14.66ZM201.25 21.85Q201.03 21.63 201.03 21.29Q201.03 20.95 201.24 20.73Q201.46 20.50 201.85 20.50L201.85 20.50Q202.25 20.50 202.47 20.73Q202.68 20.95 202.68 21.29L202.68 21.29Q202.68 21.63 202.47 21.84Q202.25 22.06 201.85 22.06L201.85 22.06Q201.47 22.06 201.25 21.85ZM209.74 22L206.68 13.47L208.30 13.47L210.45 20.14L212.62 13.47L214.24 13.47L211.17 22L209.74 22ZM217.94 18.51L217.94 18.51L217.94 17.03Q217.94 15.19 218.63 14.27Q219.32 13.35 220.73 13.35L220.73 13.35Q222.13 13.35 222.82 14.25Q223.51 15.14 223.53 16.93L223.53 16.93L223.53 18.41Q223.53 20.25 222.84 21.18Q222.15 22.12 220.74 22.12L220.74 22.12Q219.36 22.12 218.66 21.21Q217.96 20.29 217.94 18.51ZM219.36 16.68L219.36 18.61Q219.36 19.81 219.69 20.39Q220.03 20.98 220.74 20.98L220.74 20.98Q221.43 20.98 221.76 20.44Q222.08 19.90 222.10 18.74L222.10 18.74L222.10 16.81Q222.10 15.61 221.77 15.05Q221.45 14.49 220.73 14.49L220.73 14.49Q220.03 14.49 219.71 15.02Q219.38 15.55 219.36 16.68L219.36 16.68ZM228.15 21.85Q227.93 21.63 227.93 21.29Q227.93 20.95 228.14 20.73Q228.36 20.50 228.75 20.50L228.75 20.50Q229.15 20.50 229.37 20.73Q229.58 20.95 229.58 21.29L229.58 21.29Q229.58 21.63 229.37 21.84Q229.15 22.06 228.75 22.06L228.75 22.06Q228.37 22.06 228.15 21.85ZM234.08 19.67L234.08 19.67Q234.08 18.99 234.45 18.44Q234.81 17.90 235.47 17.61L235.47 17.61Q234.92 17.32 234.60 16.83Q234.28 16.35 234.28 15.72L234.28 15.72Q234.28 14.63 234.98 13.99Q235.68 13.35 236.88 13.35L236.88 13.35Q238.08 13.35 238.78 13.99Q239.49 14.63 239.49 15.72L239.49 15.72Q239.49 16.35 239.16 16.83Q238.84 17.32 238.29 17.61L238.29 17.61Q238.95 17.92 239.31 18.46Q239.67 18.99 239.67 19.67L239.67 19.67Q239.67 20.80 238.91 21.46Q238.15 22.12 236.89 22.12L236.89 22.12Q235.61 22.12 234.85 21.46Q234.08 20.79 234.08 19.67ZM235.51 19.60L235.51 19.60Q235.51 20.23 235.87 20.61Q236.24 20.98 236.89 20.98Q237.53 20.98 237.89 20.62Q238.25 20.25 238.25 19.60L238.25 19.60Q238.25 18.97 237.87 18.58Q237.49 18.19 236.87 18.19Q236.25 18.19 235.88 18.58Q235.51 18.96 235.51 19.60ZM235.70 15.77L235.70 15.77Q235.70 16.36 236.02 16.70Q236.34 17.05 236.89 17.05Q237.43 17.05 237.75 16.70Q238.07 16.36 238.07 15.77L238.07 15.77Q238.07 15.21 237.75 14.85Q237.42 14.49 236.88 14.49Q236.33 14.49 236.02 14.84Q235.70 15.18 235.70 15.77ZM246.78 18.95L243.70 18.95L243.70 17.80L246.78 17.80L246.78 18.95Z" fill="#000000"/><path class="svg__text" d="M272.16 21.24L272.16 21.24L272.94 19.49Q273.50 19.86 274.25 20.09Q274.99 20.32 275.71 20.32L275.71 20.32Q277.08 20.32 277.08 19.64L277.08 19.64Q277.08 19.28 276.69 19.11Q276.30 18.93 275.44 18.74L275.44 18.74Q274.49 18.53 273.85 18.30Q273.22 18.06 272.76 17.55Q272.31 17.03 272.31 16.16L272.31 16.16Q272.31 15.39 272.73 14.77Q273.15 14.15 273.98 13.79Q274.82 13.43 276.02 13.43L276.02 13.43Q276.85 13.43 277.66 13.62Q278.46 13.80 279.08 14.17L279.08 14.17L278.34 15.93Q277.14 15.28 276.01 15.28L276.01 15.28Q275.30 15.28 274.98 15.49Q274.66 15.70 274.66 16.04L274.66 16.04Q274.66 16.37 275.04 16.54Q275.43 16.71 276.28 16.89L276.28 16.89Q277.24 17.10 277.87 17.33Q278.50 17.56 278.96 18.07Q279.42 18.58 279.42 19.46L279.42 19.46Q279.42 20.21 279.00 20.83Q278.58 21.44 277.74 21.80Q276.90 22.17 275.70 22.17L275.70 22.17Q274.68 22.17 273.72 21.92Q272.76 21.67 272.16 21.24ZM283.57 17.80L283.57 17.80Q283.57 16.55 284.17 15.55Q284.78 14.56 285.84 14.00Q286.90 13.43 288.23 13.43L288.23 13.43Q289.56 13.43 290.63 14.00Q291.69 14.56 292.30 15.55Q292.90 16.55 292.90 17.80L292.90 17.80Q292.90 19.05 292.30 20.04Q291.69 21.04 290.63 21.60Q289.57 22.17 288.23 22.17L288.23 22.17Q286.90 22.17 285.84 21.60Q284.78 21.04 284.17 20.04Q283.57 19.05 283.57 17.80ZM285.97 17.80L285.97 17.80Q285.97 18.51 286.27 19.05Q286.57 19.60 287.09 19.90Q287.60 20.20 288.23 20.20L288.23 20.20Q288.87 20.20 289.39 19.90Q289.90 19.60 290.20 19.05Q290.50 18.51 290.50 17.80L290.50 17.80Q290.50 17.09 290.20 16.54Q289.90 16 289.39 15.70Q288.87 15.40 288.23 15.40L288.23 15.40Q287.60 15.40 287.08 15.70Q286.57 16 286.27 16.54Q285.97 17.09 285.97 17.80ZM297.56 18.26L297.56 18.26L297.56 13.60L299.94 13.60L299.94 18.19Q299.94 20.20 301.54 20.20L301.54 20.20Q303.12 20.20 303.12 18.19L303.12 18.19L303.12 13.60L305.46 13.60L305.46 18.26Q305.46 20.13 304.42 21.15Q303.38 22.17 301.51 22.17L301.51 22.17Q299.64 22.17 298.60 21.15Q297.56 20.13 297.56 18.26ZM312.93 22L310.55 22L310.55 13.60L314.39 13.60Q315.53 13.60 316.37 13.98Q317.21 14.35 317.67 15.06Q318.12 15.76 318.12 16.71L318.12 16.71Q318.12 17.62 317.70 18.30Q317.27 18.98 316.48 19.36L316.48 19.36L318.29 22L315.74 22L314.22 19.77L312.93 19.77L312.93 22ZM312.93 15.47L312.93 17.93L314.24 17.93Q314.98 17.93 315.35 17.61Q315.72 17.29 315.72 16.71L315.72 16.71Q315.72 16.12 315.35 15.79Q314.98 15.47 314.24 15.47L314.24 15.47L312.93 15.47ZM322.48 17.80L322.48 17.80Q322.48 16.54 323.08 15.54Q323.68 14.55 324.73 13.99Q325.78 13.43 327.10 13.43L327.10 13.43Q328.25 13.43 329.18 13.84Q330.10 14.25 330.71 15.02L330.71 15.02L329.20 16.39Q328.39 15.40 327.22 15.40L327.22 15.40Q326.54 15.40 326.00 15.70Q325.47 16 325.17 16.54Q324.88 17.09 324.88 17.80L324.88 17.80Q324.88 18.51 325.17 19.05Q325.47 19.60 326.00 19.90Q326.54 20.20 327.22 20.20L327.22 20.20Q328.39 20.20 329.20 19.22L329.20 19.22L330.71 20.58Q330.11 21.35 329.18 21.76Q328.25 22.17 327.10 22.17L327.10 22.17Q325.78 22.17 324.73 21.61Q323.68 21.05 323.08 20.05Q322.48 19.06 322.48 17.80ZM341.99 22L335.25 22L335.25 13.60L341.84 13.60L341.84 15.44L337.61 15.44L337.61 16.85L341.34 16.85L341.34 18.63L337.61 18.63L337.61 20.17L341.99 20.17L341.99 22ZM346.37 17.80L346.37 17.80Q346.37 16.54 346.97 15.54Q347.57 14.55 348.62 13.99Q349.67 13.43 350.99 13.43L350.99 13.43Q352.14 13.43 353.07 13.84Q353.99 14.25 354.60 15.02L354.60 15.02L353.09 16.39Q352.28 15.40 351.11 15.40L351.11 15.40Q350.43 15.40 349.89 15.70Q349.36 16 349.06 16.54Q348.77 17.09 348.77 17.80L348.77 17.80Q348.77 18.51 349.06 19.05Q349.36 19.60 349.89 19.90Q350.43 20.20 351.11 20.20L351.11 20.20Q352.28 20.20 353.09 19.22L353.09 19.22L354.60 20.58Q353.99 21.35 353.07 21.76Q352.14 22.17 350.99 22.17L350.99 22.17Q349.67 22.17 348.62 21.61Q347.57 21.05 346.97 20.05Q346.37 19.06 346.37 17.80ZM358.71 17.80L358.71 17.80Q358.71 16.55 359.31 15.55Q359.92 14.56 360.98 14.00Q362.04 13.43 363.37 13.43L363.37 13.43Q364.70 13.43 365.77 14.00Q366.83 14.56 367.44 15.55Q368.04 16.55 368.04 17.80L368.04 17.80Q368.04 19.05 367.44 20.04Q366.83 21.04 365.77 21.60Q364.71 22.17 363.37 22.17L363.37 22.17Q362.04 22.17 360.98 21.60Q359.92 21.04 359.31 20.04Q358.71 19.05 358.71 17.80ZM361.11 17.80L361.11 17.80Q361.11 18.51 361.41 19.05Q361.71 19.60 362.23 19.90Q362.74 20.20 363.37 20.20L363.37 20.20Q364.01 20.20 364.53 19.90Q365.04 19.60 365.34 19.05Q365.64 18.51 365.64 17.80L365.64 17.80Q365.64 17.09 365.34 16.54Q365.04 16 364.53 15.70Q364.01 15.40 363.37 15.40L363.37 15.40Q362.74 15.40 362.22 15.70Q361.71 16 361.41 16.54Q361.11 17.09 361.11 17.80ZM376.75 22L372.77 22L372.77 13.60L376.75 13.60Q378.13 13.60 379.20 14.12Q380.26 14.63 380.85 15.58Q381.44 16.53 381.44 17.80L381.44 17.80Q381.44 19.07 380.85 20.02Q380.26 20.97 379.20 21.48Q378.13 22 376.75 22L376.75 22ZM375.15 15.50L375.15 20.10L376.65 20.10Q377.73 20.10 378.38 19.49Q379.04 18.88 379.04 17.80L379.04 17.80Q379.04 16.72 378.38 16.11Q377.73 15.50 376.65 15.50L376.65 15.50L375.15 15.50ZM392.91 22L386.17 22L386.17 13.60L392.76 13.60L392.76 15.44L388.52 15.44L388.52 16.85L392.26 16.85L392.26 18.63L388.52 18.63L388.52 20.17L392.91 20.17L392.91 22Z" fill="#F3CA20" x="271.56"/></svg>