<svg xmlns="http://www.w3.org/2000/svg" width="245.47" height="35" viewBox="0 0 245.47 35"><rect class="svg__rect" x="0" y="0" width="120.18" height="35" fill="#F3CA20"/><rect class="svg__rect" x="118.18" y="0" width="127.28999999999999" height="35" fill="#000000"/><path class="svg__text" d="M19.57 22L14.22 22L14.22 13.47L15.70 13.47L15.70 20.82L19.57 20.82L19.57 22ZM23.43 18.00L23.43 18.00L23.43 17.52Q23.43 16.28 23.87 15.32Q24.31 14.37 25.12 13.86Q25.92 13.35 26.97 13.35Q28.01 13.35 28.82 13.85Q29.62 14.35 30.06 15.29Q30.50 16.23 30.51 17.48L30.51 17.48L30.51 17.96Q30.51 19.21 30.07 20.16Q29.64 21.10 28.83 21.61Q28.03 22.12 26.98 22.12L26.98 22.12Q25.94 22.12 25.13 21.61Q24.32 21.10 23.88 20.17Q23.43 19.23 23.43 18.00ZM24.91 17.46L24.91 17.96Q24.91 19.36 25.46 20.13Q26.01 20.90 26.98 20.90L26.98 20.90Q27.96 20.90 28.49 20.15Q29.02 19.40 29.02 17.96L29.02 17.96L29.02 17.51Q29.02 16.09 28.49 15.34Q27.95 14.58 26.97 14.58L26.97 14.58Q26.01 14.58 25.46 15.33Q24.92 16.09 24.91 17.46L24.91 17.46ZM36.45 22L34.97 22L34.97 13.47L36.45 13.47L40.27 19.54L40.27 13.47L41.74 13.47L41.74 22L40.26 22L36.45 15.95L36.45 22ZM46.23 18.13L46.23 18.13L46.23 17.46Q46.23 15.53 47.16 14.44Q48.08 13.35 49.74 13.35L49.74 13.35Q51.17 13.35 52.00 14.05Q52.84 14.76 53.01 16.08L53.01 16.08L51.56 16.08Q51.31 14.54 49.77 14.54L49.77 14.54Q48.78 14.54 48.26 15.26Q47.74 15.98 47.72 17.37L47.72 17.37L47.72 18.02Q47.72 19.40 48.30 20.17Q48.89 20.93 49.92 20.93L49.92 20.93Q51.06 20.93 51.54 20.42L51.54 20.42L51.54 18.75L49.78 18.75L49.78 17.62L53.02 17.62L53.02 20.89Q52.56 21.50 51.73 21.81Q50.91 22.12 49.87 22.12L49.87 22.12Q48.80 22.12 47.97 21.63Q47.15 21.14 46.70 20.24Q46.25 19.33 46.23 18.13ZM60.26 18.95L57.18 18.95L57.18 17.80L60.26 17.80L60.26 18.95ZM66.24 14.66L63.61 14.66L63.61 13.47L70.37 13.47L70.37 14.66L67.71 14.66L67.71 22L66.24 22L66.24 14.66ZM75.69 22L74.22 22L74.22 13.47L75.69 13.47L75.69 22ZM81.98 22L80.50 22L80.50 13.47L82.43 13.47L84.89 20.01L87.34 13.47L89.26 13.47L89.26 22L87.78 22L87.78 19.19L87.93 15.43L85.41 22L84.35 22L81.83 15.43L81.98 19.19L81.98 22ZM99.58 22L94.00 22L94.00 13.47L99.54 13.47L99.54 14.66L95.48 14.66L95.48 17.02L98.98 17.02L98.98 18.19L95.48 18.19L95.48 20.82L99.58 20.82L99.58 22ZM106.40 18.95L103.32 18.95L103.32 17.80L106.40 17.80L106.40 18.95Z" fill="#000000"/><path class="svg__text" d="M131.78 21.24L131.78 21.24L132.56 19.49Q133.12 19.86 133.87 20.09Q134.61 20.32 135.33 20.32L135.33 20.32Q136.70 20.32 136.70 19.64L136.70 19.64Q136.70 19.28 136.31 19.11Q135.92 18.93 135.06 18.74L135.06 18.74Q134.11 18.53 133.47 18.30Q132.84 18.06 132.38 17.55Q131.93 17.03 131.93 16.16L131.93 16.16Q131.93 15.39 132.35 14.77Q132.77 14.15 133.60 13.79Q134.44 13.43 135.64 13.43L135.64 13.43Q136.47 13.43 137.28 13.62Q138.08 13.80 138.70 14.17L138.70 14.17L137.96 15.93Q136.76 15.28 135.63 15.28L135.63 15.28Q134.92 15.28 134.60 15.49Q134.28 15.70 134.28 16.04L134.28 16.04Q134.28 16.37 134.66 16.54Q135.05 16.71 135.90 16.89L135.90 16.89Q136.86 17.10 137.49 17.33Q138.12 17.56 138.58 18.07Q139.04 18.58 139.04 19.46L139.04 19.46Q139.04 20.21 138.62 20.83Q138.20 21.44 137.36 21.80Q136.52 22.17 135.32 22.17L135.32 22.17Q134.30 22.17 133.34 21.92Q132.38 21.67 131.78 21.24ZM146.00 22L143.62 22L143.62 13.60L147.46 13.60Q148.60 13.60 149.44 13.98Q150.28 14.35 150.74 15.06Q151.19 15.76 151.19 16.71L151.19 16.71Q151.19 17.66 150.74 18.35Q150.28 19.05 149.44 19.42Q148.60 19.80 147.46 19.80L147.46 19.80L146.00 19.80L146.00 22ZM146.00 15.47L146.00 17.93L147.32 17.93Q148.05 17.93 148.42 17.61Q148.79 17.29 148.79 16.71L148.79 16.71Q148.79 16.12 148.42 15.80Q148.05 15.47 147.32 15.47L147.32 15.47L146.00 15.47ZM162.69 22L155.95 22L155.95 13.60L162.54 13.60L162.54 15.44L158.30 15.44L158.30 16.85L162.03 16.85L162.03 18.63L158.30 18.63L158.30 20.17L162.69 20.17L162.69 22ZM174.24 22L167.49 22L167.49 13.60L174.09 13.60L174.09 15.44L169.85 15.44L169.85 16.85L173.58 16.85L173.58 18.63L169.85 18.63L169.85 20.17L174.24 20.17L174.24 22ZM183.02 22L179.04 22L179.04 13.60L183.02 13.60Q184.40 13.60 185.47 14.12Q186.53 14.63 187.12 15.58Q187.71 16.53 187.71 17.80L187.71 17.80Q187.71 19.07 187.12 20.02Q186.53 20.97 185.47 21.48Q184.40 22 183.02 22L183.02 22ZM181.42 15.50L181.42 20.10L182.92 20.10Q184.00 20.10 184.65 19.49Q185.31 18.88 185.31 17.80L185.31 17.80Q185.31 16.72 184.65 16.11Q184.00 15.50 182.92 15.50L182.92 15.50L181.42 15.50ZM194.23 15.48L191.65 15.48L191.65 13.60L199.17 13.60L199.17 15.48L196.60 15.48L196.60 22L194.23 22L194.23 15.48ZM210.29 22L203.54 22L203.54 13.60L210.13 13.60L210.13 15.44L205.90 15.44L205.90 16.85L209.63 16.85L209.63 18.63L205.90 18.63L205.90 20.17L210.29 20.17L210.29 22ZM214.50 21.24L214.50 21.24L215.28 19.49Q215.85 19.86 216.59 20.09Q217.33 20.32 218.06 20.32L218.06 20.32Q219.42 20.32 219.43 19.64L219.43 19.64Q219.43 19.28 219.04 19.11Q218.65 18.93 217.78 18.74L217.78 18.74Q216.83 18.53 216.20 18.30Q215.56 18.06 215.11 17.55Q214.65 17.03 214.65 16.16L214.65 16.16Q214.65 15.39 215.07 14.77Q215.49 14.15 216.32 13.79Q217.16 13.43 218.37 13.43L218.37 13.43Q219.19 13.43 220.00 13.62Q220.80 13.80 221.42 14.17L221.42 14.17L220.69 15.93Q219.49 15.28 218.35 15.28L218.35 15.28Q217.65 15.28 217.32 15.49Q217.00 15.70 217.00 16.04L217.00 16.04Q217.00 16.37 217.38 16.54Q217.77 16.71 218.62 16.89L218.62 16.89Q219.58 17.10 220.21 17.33Q220.84 17.56 221.30 18.07Q221.76 18.58 221.76 19.46L221.76 19.46Q221.76 20.21 221.35 20.83Q220.93 21.44 220.09 21.80Q219.24 22.17 218.04 22.17L218.04 22.17Q217.02 22.17 216.06 21.92Q215.10 21.67 214.50 21.24ZM228.13 15.48L225.55 15.48L225.55 13.60L233.07 13.60L233.07 15.48L230.51 15.48L230.51 22L228.13 22L228.13 15.48Z" fill="#F3CA20" x="131.18"/></svg>