<svg xmlns="http://www.w3.org/2000/svg" width="248.83999999999997" height="35" viewBox="0 0 248.83999999999997 35"><rect class="svg__rect" x="0" y="0" width="123.55" height="35" fill="#F3CA20"/><rect class="svg__rect" x="121.55" y="0" width="127.28999999999999" height="35" fill="#000000"/><path class="svg__text" d="M19.57 22L14.22 22L14.22 13.47L15.70 13.47L15.70 20.82L19.57 20.82L19.57 22ZM23.43 18.00L23.43 18.00L23.43 17.52Q23.43 16.28 23.87 15.32Q24.31 14.37 25.12 13.86Q25.92 13.35 26.97 13.35Q28.01 13.35 28.82 13.85Q29.62 14.35 30.06 15.29Q30.50 16.23 30.51 17.48L30.51 17.48L30.51 17.96Q30.51 19.21 30.07 20.16Q29.64 21.10 28.83 21.61Q28.03 22.12 26.98 22.12L26.98 22.12Q25.94 22.12 25.13 21.61Q24.32 21.10 23.88 20.17Q23.43 19.23 23.43 18.00ZM24.91 17.46L24.91 17.96Q24.91 19.36 25.46 20.13Q26.01 20.90 26.98 20.90L26.98 20.90Q27.96 20.90 28.49 20.15Q29.02 19.40 29.02 17.96L29.02 17.96L29.02 17.51Q29.02 16.09 28.49 15.34Q27.95 14.58 26.97 14.58L26.97 14.58Q26.01 14.58 25.46 15.33Q24.92 16.09 24.91 17.46L24.91 17.46ZM36.45 22L34.97 22L34.97 13.47L36.45 13.47L40.27 19.54L40.27 13.47L41.74 13.47L41.74 22L40.26 22L36.45 15.95L36.45 22ZM46.23 18.13L46.23 18.13L46.23 17.46Q46.23 15.53 47.16 14.44Q48.08 13.35 49.74 13.35L49.74 13.35Q51.17 13.35 52.00 14.05Q52.84 14.76 53.01 16.08L53.01 16.08L51.56 16.08Q51.31 14.54 49.77 14.54L49.77 14.54Q48.78 14.54 48.26 15.26Q47.74 15.98 47.72 17.37L47.72 17.37L47.72 18.02Q47.72 19.40 48.30 20.17Q48.89 20.93 49.92 20.93L49.92 20.93Q51.06 20.93 51.54 20.42L51.54 20.42L51.54 18.75L49.78 18.75L49.78 17.62L53.02 17.62L53.02 20.89Q52.56 21.50 51.73 21.81Q50.91 22.12 49.87 22.12L49.87 22.12Q48.80 22.12 47.97 21.63Q47.15 21.14 46.70 20.24Q46.25 19.33 46.23 18.13ZM56.79 23.12L56.79 22L62.16 22L62.16 23.12L56.79 23.12ZM67.72 14.66L65.08 14.66L65.08 13.47L71.85 13.47L71.85 14.66L69.19 14.66L69.19 22L67.72 22L67.72 14.66ZM77.17 22L75.69 22L75.69 13.47L77.17 13.47L77.17 22ZM83.46 22L81.98 22L81.98 13.47L83.90 13.47L86.36 20.01L88.82 13.47L90.73 13.47L90.73 22L89.26 22L89.26 19.19L89.40 15.43L86.89 22L85.82 22L83.31 15.43L83.46 19.19L83.46 22ZM101.05 22L95.47 22L95.47 13.47L101.01 13.47L101.01 14.66L96.96 14.66L96.96 17.02L100.46 17.02L100.46 18.19L96.96 18.19L96.96 20.82L101.05 20.82L101.05 22ZM104.40 23.12L104.40 22L109.77 22L109.77 23.12L104.40 23.12Z" fill="#000000"/><path class="svg__text" d="M135.15 21.24L135.15 21.24L135.93 19.49Q136.49 19.86 137.24 20.09Q137.98 20.32 138.70 20.32L138.70 20.32Q140.07 20.32 140.07 19.64L140.07 19.64Q140.07 19.28 139.68 19.11Q139.29 18.93 138.43 18.74L138.43 18.74Q137.48 18.53 136.84 18.30Q136.21 18.06 135.75 17.55Q135.30 17.03 135.30 16.16L135.30 16.16Q135.30 15.39 135.72 14.77Q136.14 14.15 136.97 13.79Q137.81 13.43 139.01 13.43L139.01 13.43Q139.84 13.43 140.65 13.62Q141.45 13.80 142.07 14.17L142.07 14.17L141.33 15.93Q140.13 15.28 139.00 15.28L139.00 15.28Q138.29 15.28 137.97 15.49Q137.65 15.70 137.65 16.04L137.65 16.04Q137.65 16.37 138.03 16.54Q138.42 16.71 139.27 16.89L139.27 16.89Q140.23 17.10 140.86 17.33Q141.49 17.56 141.95 18.07Q142.41 18.58 142.41 19.46L142.41 19.46Q142.41 20.21 141.99 20.83Q141.57 21.44 140.73 21.80Q139.89 22.17 138.69 22.17L138.69 22.17Q137.67 22.17 136.71 21.92Q135.75 21.67 135.15 21.24ZM149.37 22L146.99 22L146.99 13.60L150.83 13.60Q151.97 13.60 152.81 13.98Q153.65 14.35 154.11 15.06Q154.56 15.76 154.56 16.71L154.56 16.71Q154.56 17.66 154.11 18.35Q153.65 19.05 152.81 19.42Q151.97 19.80 150.83 19.80L150.83 19.80L149.37 19.80L149.37 22ZM149.37 15.47L149.37 17.93L150.69 17.93Q151.42 17.93 151.79 17.61Q152.16 17.29 152.16 16.71L152.16 16.71Q152.16 16.12 151.79 15.80Q151.42 15.47 150.69 15.47L150.69 15.47L149.37 15.47ZM166.06 22L159.32 22L159.32 13.60L165.91 13.60L165.91 15.44L161.67 15.44L161.67 16.85L165.40 16.85L165.40 18.63L161.67 18.63L161.67 20.17L166.06 20.17L166.06 22ZM177.61 22L170.86 22L170.86 13.60L177.46 13.60L177.46 15.44L173.22 15.44L173.22 16.85L176.95 16.85L176.95 18.63L173.22 18.63L173.22 20.17L177.61 20.17L177.61 22ZM186.39 22L182.41 22L182.41 13.60L186.39 13.60Q187.77 13.60 188.84 14.12Q189.90 14.63 190.49 15.58Q191.08 16.53 191.08 17.80L191.08 17.80Q191.08 19.07 190.49 20.02Q189.90 20.97 188.84 21.48Q187.77 22 186.39 22L186.39 22ZM184.79 15.50L184.79 20.10L186.29 20.10Q187.37 20.10 188.02 19.49Q188.68 18.88 188.68 17.80L188.68 17.80Q188.68 16.72 188.02 16.11Q187.37 15.50 186.29 15.50L186.29 15.50L184.79 15.50ZM197.60 15.48L195.02 15.48L195.02 13.60L202.54 13.60L202.54 15.48L199.97 15.48L199.97 22L197.60 22L197.60 15.48ZM213.66 22L206.91 22L206.91 13.60L213.50 13.60L213.50 15.44L209.27 15.44L209.27 16.85L213.00 16.85L213.00 18.63L209.27 18.63L209.27 20.17L213.66 20.17L213.66 22ZM217.87 21.24L217.87 21.24L218.65 19.49Q219.22 19.86 219.96 20.09Q220.70 20.32 221.43 20.32L221.43 20.32Q222.79 20.32 222.80 19.64L222.80 19.64Q222.80 19.28 222.41 19.11Q222.02 18.93 221.15 18.74L221.15 18.74Q220.20 18.53 219.57 18.30Q218.93 18.06 218.48 17.55Q218.02 17.03 218.02 16.16L218.02 16.16Q218.02 15.39 218.44 14.77Q218.86 14.15 219.69 13.79Q220.53 13.43 221.74 13.43L221.74 13.43Q222.56 13.43 223.37 13.62Q224.17 13.80 224.79 14.17L224.79 14.17L224.06 15.93Q222.86 15.28 221.72 15.28L221.72 15.28Q221.02 15.28 220.69 15.49Q220.37 15.70 220.37 16.04L220.37 16.04Q220.37 16.37 220.75 16.54Q221.14 16.71 221.99 16.89L221.99 16.89Q222.95 17.10 223.58 17.33Q224.21 17.56 224.67 18.07Q225.13 18.58 225.13 19.46L225.13 19.46Q225.13 20.21 224.72 20.83Q224.30 21.44 223.46 21.80Q222.61 22.17 221.41 22.17L221.41 22.17Q220.39 22.17 219.43 21.92Q218.47 21.67 217.87 21.24ZM231.50 15.48L228.92 15.48L228.92 13.60L236.44 13.60L236.44 15.48L233.88 15.48L233.88 22L231.50 22L231.50 15.48Z" fill="#F3CA20" x="134.55"/></svg>