<svg xmlns="http://www.w3.org/2000/svg" width="401.92" height="35" viewBox="0 0 401.92 35"><rect class="svg__rect" x="0" y="0" width="260.56" height="35" fill="#F3CA20"/><rect class="svg__rect" x="258.56" y="0" width="143.36" height="35" fill="#000000"/><path class="svg__text" d="M19.57 22L14.22 22L14.22 13.47L15.70 13.47L15.70 20.82L19.57 20.82L19.57 22ZM23.43 18.00L23.43 18.00L23.43 17.52Q23.43 16.28 23.87 15.32Q24.31 14.37 25.12 13.86Q25.92 13.35 26.97 13.35Q28.01 13.35 28.82 13.85Q29.62 14.35 30.06 15.29Q30.50 16.23 30.51 17.48L30.51 17.48L30.51 17.96Q30.51 19.21 30.07 20.16Q29.64 21.10 28.83 21.61Q28.03 22.12 26.98 22.12L26.98 22.12Q25.94 22.12 25.13 21.61Q24.32 21.10 23.88 20.17Q23.43 19.23 23.43 18.00ZM24.91 17.46L24.91 17.96Q24.91 19.36 25.46 20.13Q26.01 20.90 26.98 20.90L26.98 20.90Q27.96 20.90 28.49 20.15Q29.02 19.40 29.02 17.96L29.02 17.96L29.02 17.51Q29.02 16.09 28.49 15.34Q27.95 14.58 26.97 14.58L26.97 14.58Q26.01 14.58 25.46 15.33Q24.92 16.09 24.91 17.46L24.91 17.46ZM36.45 22L34.97 22L34.97 13.47L36.45 13.47L40.27 19.54L40.27 13.47L41.74 13.47L41.74 22L40.26 22L36.45 15.95L36.45 22ZM46.23 18.13L46.23 18.13L46.23 17.46Q46.23 15.53 47.16 14.44Q48.08 13.35 49.74 13.35L49.74 13.35Q51.17 13.35 52.00 14.05Q52.84 14.76 53.01 16.08L53.01 16.08L51.56 16.08Q51.31 14.54 49.77 14.54L49.77 14.54Q48.78 14.54 48.26 15.26Q47.74 15.98 47.72 17.37L47.72 17.37L47.72 18.02Q47.72 19.40 48.30 20.17Q48.89 20.93 49.92 20.93L49.92 20.93Q51.06 20.93 51.54 20.42L51.54 20.42L51.54 18.75L49.78 18.75L49.78 17.62L53.02 17.62L53.02 20.89Q52.56 21.50 51.73 21.81Q50.91 22.12 49.87 22.12L49.87 22.12Q48.80 22.12 47.97 21.63Q47.15 21.14 46.70 20.24Q46.25 19.33 46.23 18.13ZM60.26 18.95L57.18 18.95L57.18 17.80L60.26 17.80L60.26 18.95ZM66.24 14.66L63.61 14.66L63.61 13.47L70.37 13.47L70.37 14.66L67.71 14.66L67.71 22L66.24 22L66.24 14.66ZM75.69 22L74.22 22L74.22 13.47L75.69 13.47L75.69 22ZM81.98 22L80.50 22L80.50 13.47L82.43 13.47L84.89 20.01L87.34 13.47L89.26 13.47L89.26 22L87.78 22L87.78 19.19L87.93 15.43L85.41 22L84.35 22L81.83 15.43L81.98 19.19L81.98 22ZM99.58 22L94.00 22L94.00 13.47L99.54 13.47L99.54 14.66L95.48 14.66L95.48 17.02L98.98 17.02L98.98 18.19L95.48 18.19L95.48 20.82L99.58 20.82L99.58 22ZM106.40 18.95L103.32 18.95L103.32 17.80L106.40 17.80L106.40 18.95ZM110.26 19.42L110.26 19.42L111.75 19.42Q111.75 20.15 112.23 20.55Q112.71 20.95 113.60 20.95L113.60 20.95Q114.38 20.95 114.77 20.63Q115.16 20.32 115.16 19.80L115.16 19.80Q115.16 19.24 114.76 18.94Q114.37 18.63 113.33 18.32Q112.30 18.01 111.69 17.63L111.69 17.63Q110.53 16.90 110.53 15.72L110.53 15.72Q110.53 14.69 111.37 14.02Q112.21 13.35 113.55 13.35L113.55 13.35Q114.44 13.35 115.14 13.68Q115.84 14.01 116.23 14.61Q116.63 15.22 116.63 15.96L116.63 15.96L115.16 15.96Q115.16 15.29 114.74 14.91Q114.32 14.54 113.54 14.54L113.54 14.54Q112.81 14.54 112.41 14.85Q112.01 15.16 112.01 15.71L112.01 15.71Q112.01 16.18 112.44 16.50Q112.88 16.81 113.87 17.10Q114.87 17.40 115.47 17.78Q116.08 18.16 116.36 18.65Q116.64 19.13 116.64 19.79L116.64 19.79Q116.64 20.86 115.82 21.49Q115.00 22.12 113.60 22.12L113.60 22.12Q112.68 22.12 111.90 21.77Q111.13 21.43 110.69 20.83Q110.26 20.22 110.26 19.42ZM122.41 22L120.93 22L120.93 13.47L124.19 13.47Q125.62 13.47 126.46 14.21Q127.30 14.96 127.30 16.18L127.30 16.18Q127.30 17.44 126.48 18.13Q125.66 18.83 124.17 18.83L124.17 18.83L122.41 18.83L122.41 22ZM122.41 14.66L122.41 17.64L124.19 17.64Q124.98 17.64 125.40 17.27Q125.81 16.90 125.81 16.19L125.81 16.19Q125.81 15.50 125.39 15.09Q124.97 14.68 124.23 14.66L124.23 14.66L122.41 14.66ZM137.16 22L131.59 22L131.59 13.47L137.12 13.47L137.12 14.66L133.07 14.66L133.07 17.02L136.57 17.02L136.57 18.19L133.07 18.19L133.07 20.82L137.16 20.82L137.16 22ZM146.94 22L141.36 22L141.36 13.47L146.90 13.47L146.90 14.66L142.84 14.66L142.84 17.02L146.35 17.02L146.35 18.19L142.84 18.19L142.84 20.82L146.94 20.82L146.94 22ZM153.59 22L151.13 22L151.13 13.47L153.65 13.47Q154.78 13.47 155.66 13.97Q156.54 14.48 157.02 15.40Q157.50 16.33 157.50 17.52L157.50 17.52L157.50 17.95Q157.50 19.16 157.01 20.08Q156.53 21.00 155.64 21.50Q154.74 22 153.59 22L153.59 22ZM152.62 14.66L152.62 20.82L153.58 20.82Q154.75 20.82 155.37 20.09Q156.00 19.36 156.01 17.99L156.01 17.99L156.01 17.52Q156.01 16.13 155.40 15.40Q154.80 14.66 153.65 14.66L153.65 14.66L152.62 14.66ZM163.64 14.66L161.01 14.66L161.01 13.47L167.77 13.47L167.77 14.66L165.11 14.66L165.11 22L163.64 22L163.64 14.66ZM177.11 22L171.53 22L171.53 13.47L177.07 13.47L177.07 14.66L173.01 14.66L173.01 17.02L176.52 17.02L176.52 18.19L173.01 18.19L173.01 20.82L177.11 20.82L177.11 22ZM180.87 19.42L180.87 19.42L182.35 19.42Q182.35 20.15 182.83 20.55Q183.31 20.95 184.21 20.95L184.21 20.95Q184.98 20.95 185.37 20.63Q185.76 20.32 185.76 19.80L185.76 19.80Q185.76 19.24 185.37 18.94Q184.97 18.63 183.94 18.32Q182.91 18.01 182.30 17.63L182.30 17.63Q181.13 16.90 181.13 15.72L181.13 15.72Q181.13 14.69 181.97 14.02Q182.81 13.35 184.16 13.35L184.16 13.35Q185.05 13.35 185.74 13.68Q186.44 14.01 186.84 14.61Q187.24 15.22 187.24 15.96L187.24 15.96L185.76 15.96Q185.76 15.29 185.34 14.91Q184.92 14.54 184.14 14.54L184.14 14.54Q183.42 14.54 183.02 14.85Q182.62 15.16 182.62 15.71L182.62 15.71Q182.62 16.18 183.05 16.50Q183.48 16.81 184.48 17.10Q185.47 17.40 186.08 17.78Q186.68 18.16 186.96 18.65Q187.24 19.13 187.24 19.79L187.24 19.79Q187.24 20.86 186.43 21.49Q185.61 22.12 184.21 22.12L184.21 22.12Q183.28 22.12 182.51 21.77Q181.73 21.43 181.30 20.83Q180.87 20.22 180.87 19.42ZM193.22 14.66L190.58 14.66L190.58 13.47L197.35 13.47L197.35 14.66L194.69 14.66L194.69 22L193.22 22L193.22 14.66ZM201.25 21.85Q201.03 21.63 201.03 21.29Q201.03 20.95 201.24 20.73Q201.46 20.50 201.85 20.50L201.85 20.50Q202.25 20.50 202.47 20.73Q202.68 20.95 202.68 21.29L202.68 21.29Q202.68 21.63 202.47 21.84Q202.25 22.06 201.85 22.06L201.85 22.06Q201.47 22.06 201.25 21.85ZM209.74 22L206.68 13.47L208.30 13.47L210.45 20.14L212.62 13.47L214.24 13.47L211.17 22L209.74 22ZM217.94 18.51L217.94 18.51L217.94 17.03Q217.94 15.19 218.63 14.27Q219.32 13.35 220.73 13.35L220.73 13.35Q222.13 13.35 222.82 14.25Q223.51 15.14 223.53 16.93L223.53 16.93L223.53 18.41Q223.53 20.25 222.84 21.18Q222.15 22.12 220.74 22.12L220.74 22.12Q219.36 22.12 218.66 21.21Q217.96 20.29 217.94 18.51ZM219.36 16.68L219.36 18.61Q219.36 19.81 219.69 20.39Q220.03 20.98 220.74 20.98L220.74 20.98Q221.43 20.98 221.76 20.44Q222.08 19.90 222.10 18.74L222.10 18.74L222.10 16.81Q222.10 15.61 221.77 15.05Q221.45 14.49 220.73 14.49L220.73 14.49Q220.03 14.49 219.71 15.02Q219.38 15.55 219.36 16.68L219.36 16.68ZM228.15 21.85Q227.93 21.63 227.93 21.29Q227.93 20.95 228.14 20.73Q228.36 20.50 228.75 20.50L228.75 20.50Q229.15 20.50 229.37 20.73Q229.58 20.95 229.58 21.29L229.58 21.29Q229.58 21.63 229.37 21.84Q229.15 22.06 228.75 22.06L228.75 22.06Q228.37 22.06 228.15 21.85ZM234.08 19.67L234.08 19.67Q234.08 18.99 234.45 18.44Q234.81 17.90 235.47 17.61L235.47 17.61Q234.92 17.32 234.60 16.83Q234.28 16.35 234.28 15.72L234.28 15.72Q234.28 14.63 234.98 13.99Q235.68 13.35 236.88 13.35L236.88 13.35Q238.08 13.35 238.78 13.99Q239.49 14.63 239.49 15.72L239.49 15.72Q239.49 16.35 239.16 16.83Q238.84 17.32 238.29 17.61L238.29 17.61Q238.95 17.92 239.31 18.46Q239.67 18.99 239.67 19.67L239.67 19.67Q239.67 20.80 238.91 21.46Q238.15 22.12 236.89 22.12L236.89 22.12Q235.61 22.12 234.85 21.46Q234.08 20.79 234.08 19.67ZM235.51 19.60L235.51 19.60Q235.51 20.23 235.87 20.61Q236.24 20.98 236.89 20.98Q237.53 20.98 237.89 20.62Q238.25 20.25 238.25 19.60L238.25 19.60Q238.25 18.97 237.87 18.58Q237.49 18.19 236.87 18.19Q236.25 18.19 235.88 18.58Q235.51 18.96 235.51 19.60ZM235.70 15.77L235.70 15.77Q235.70 16.36 236.02 16.70Q236.34 17.05 236.89 17.05Q237.43 17.05 237.75 16.70Q238.07 16.36 238.07 15.77L238.07 15.77Q238.07 15.21 237.75 14.85Q237.42 14.49 236.88 14.49Q236.33 14.49 236.02 14.84Q235.70 15.18 235.70 15.77ZM246.78 18.95L243.70 18.95L243.70 17.80L246.78 17.80L246.78 18.95Z" fill="#000000"/><path class="svg__text" d="M272.32 17.80L272.32 17.80Q272.32 16.55 272.92 15.55Q273.53 14.56 274.59 14.00Q275.65 13.43 276.98 13.43L276.98 13.43Q278.31 13.43 279.38 14.00Q280.44 14.56 281.05 15.55Q281.65 16.55 281.65 17.80L281.65 17.80Q281.65 19.05 281.05 20.04Q280.44 21.04 279.38 21.60Q278.32 22.17 276.98 22.17L276.98 22.17Q275.65 22.17 274.59 21.60Q273.53 21.04 272.92 20.04Q272.32 19.05 272.32 17.80ZM274.72 17.80L274.72 17.80Q274.72 18.51 275.02 19.05Q275.32 19.60 275.84 19.90Q276.35 20.20 276.98 20.20L276.98 20.20Q277.62 20.20 278.14 19.90Q278.65 19.60 278.95 19.05Q279.25 18.51 279.25 17.80L279.25 17.80Q279.25 17.09 278.95 16.54Q278.65 16 278.14 15.70Q277.62 15.40 276.98 15.40L276.98 15.40Q276.35 15.40 275.83 15.70Q275.32 16 275.02 16.54Q274.72 17.09 274.72 17.80ZM288.71 22L286.38 22L286.38 13.60L288.34 13.60L292.05 18.07L292.05 13.60L294.37 13.60L294.37 22L292.42 22L288.71 17.52L288.71 22ZM306.28 22L299.54 22L299.54 13.60L306.13 13.60L306.13 15.44L301.89 15.44L301.89 16.85L305.62 16.85L305.62 18.63L301.89 18.63L301.89 20.17L306.28 20.17L306.28 22ZM313.46 22L311.09 22L311.09 13.60L317.68 13.60L317.68 15.44L313.46 15.44L313.46 17.28L317.17 17.28L317.17 19.12L313.46 19.12L313.46 22ZM324.65 22L322.27 22L322.27 13.60L324.65 13.60L324.65 22ZM336.21 22L329.82 22L329.82 13.60L332.20 13.60L332.20 20.11L336.21 20.11L336.21 22ZM347.37 22L340.63 22L340.63 13.60L347.22 13.60L347.22 15.44L342.98 15.44L342.98 16.85L346.72 16.85L346.72 18.63L342.98 18.63L342.98 20.17L347.37 20.17L347.37 22ZM351.66 20.75L351.66 20.75Q351.66 20.15 352.05 19.78Q352.44 19.41 353.03 19.41L353.03 19.41Q353.63 19.41 354.01 19.78Q354.40 20.15 354.40 20.75L354.40 20.75Q354.40 21.34 354.01 21.72Q353.62 22.11 353.03 22.11L353.03 22.11Q352.45 22.11 352.06 21.72Q351.66 21.34 351.66 20.75ZM365.80 22L359.06 22L359.06 13.60L365.65 13.60L365.65 15.44L361.41 15.44L361.41 16.85L365.14 16.85L365.14 18.63L361.41 18.63L361.41 20.17L365.80 20.17L365.80 22ZM372.46 22L369.74 22L372.80 17.75L369.87 13.60L372.55 13.60L374.23 16.02L375.88 13.60L378.46 13.60L375.53 17.66L378.65 22L375.91 22L374.17 19.40L372.46 22ZM389.68 22L382.93 22L382.93 13.60L389.53 13.60L389.53 15.44L385.29 15.44L385.29 16.85L389.02 16.85L389.02 18.63L385.29 18.63L385.29 20.17L389.68 20.17L389.68 22Z" fill="#F3CA20" x="271.56"/></svg>